<svg xmlns="http://www.w3.org/2000/svg" viewBox="0 0 104 104" width="104" height="104" shape-rendering="crispEdges">
<title>Porygon</title>
  <rect x="32" y="8" width="32" height="8" fill="#191225"></rect>
  <rect x="24" y="16" width="8" height="8" fill="#191225"></rect>
  <rect x="32" y="16" width="32" height="8" fill="#ff4f8f"></rect>
  <rect x="64" y="16" width="8" height="8" fill="#191225"></rect>
  <rect x="16" y="24" width="8" height="8" fill="#191225"></rect>
  <rect x="24" y="24" width="8" height="8" fill="#ff4f8f"></rect>
  <rect x="32" y="24" width="16" height="8" fill="#ff9ec4"></rect>
  <rect x="48" y="24" width="24" height="8" fill="#ff4f8f"></rect>
  <rect x="72" y="24" width="8" height="8" fill="#191225"></rect>
  <rect x="16" y="32" width="8" height="8" fill="#191225"></rect>
  <rect x="24" y="32" width="48" height="8" fill="#ff4f8f"></rect>
  <rect x="72" y="32" width="8" height="8" fill="#191225"></rect>
  <rect x="8" y="40" width="8" height="8" fill="#191225"></rect>
  <rect x="16" y="40" width="8" height="8" fill="#ff4f8f"></rect>
  <rect x="24" y="40" width="8" height="8" fill="#ff9ec4"></rect>
  <rect x="32" y="40" width="8" height="8" fill="#ff4f8f"></rect>
  <rect x="40" y="40" width="8" height="8" fill="#ffffff"></rect>
  <rect x="48" y="40" width="32" height="8" fill="#ff4f8f"></rect>
  <rect x="80" y="40" width="8" height="8" fill="#191225"></rect>
  <rect x="8" y="48" width="8" height="8" fill="#191225"></rect>
  <rect x="16" y="48" width="64" height="8" fill="#ff4f8f"></rect>
  <rect x="80" y="48" width="8" height="8" fill="#191225"></rect>
  <rect x="88" y="48" width="16" height="8" fill="#2bd6d6"></rect>
  <rect x="8" y="56" width="8" height="8" fill="#191225"></rect>
  <rect x="16" y="56" width="64" height="8" fill="#ff4f8f"></rect>
  <rect x="80" y="56" width="8" height="8" fill="#191225"></rect>
  <rect x="88" y="56" width="16" height="8" fill="#2bd6d6"></rect>
  <rect x="16" y="64" width="8" height="8" fill="#191225"></rect>
  <rect x="24" y="64" width="56" height="8" fill="#ff4f8f"></rect>
  <rect x="80" y="64" width="8" height="8" fill="#191225"></rect>
  <rect x="16" y="72" width="8" height="8" fill="#191225"></rect>
  <rect x="24" y="72" width="48" height="8" fill="#ff4f8f"></rect>
  <rect x="72" y="72" width="8" height="8" fill="#191225"></rect>
  <rect x="24" y="80" width="8" height="8" fill="#191225"></rect>
  <rect x="32" y="80" width="32" height="8" fill="#ff4f8f"></rect>
  <rect x="64" y="80" width="8" height="8" fill="#191225"></rect>
  <rect x="32" y="88" width="32" height="8" fill="#191225"></rect>
</svg>